<?xml version="1.0" encoding="UTF-8"?>
<svg version="1.1" xmlns="http://www.w3.org/2000/svg" width="500" height="500">
<path d="M0 0 C165 0 330 0 500 0 C500 165 500 330 500 500 C335 500 170 500 0 500 C0 335 0 170 0 0 Z " fill="#FEF9F0" transform="translate(0,0)"/>
<path d="M0 0 C1.75070717 0.93617876 3.50068684 1.87371903 5.25 2.8125 C8.32722633 4.08138098 11.42191455 5.29590068 14.5234375 6.50390625 C17.48773923 7.92660121 19.76389845 9.67445266 22.25 11.8125 C22.84425781 11.53535156 23.43851562 11.25820312 24.05078125 10.97265625 C29.77482717 8.47116807 34.76030389 7.29849341 41 6.98828125 C43.28511362 6.9516891 43.28511362 6.9516891 45.25 5.8125 C47.91007481 5.66198434 50.52654185 5.58122266 53.1875 5.5625 C53.91646484 5.541875 54.64542969 5.52125 55.39648438 5.5 C60.70054877 5.46110677 60.70054877 5.46110677 63.265625 7.1015625 C64.96527276 10.05571218 64.01362404 12.6405232 63.25 15.8125 C59.95322112 17.46088944 56.30683956 16.95522738 52.6875 16.9375 C51.89408203 16.94136719 51.10066406 16.94523437 50.28320312 16.94921875 C44.37663067 16.93913067 44.37663067 16.93913067 43.25 15.8125 C36.09872891 15.06125536 29.95624303 16.41537483 23.25 18.8125 C23.30800781 19.46476562 23.36601562 20.11703125 23.42578125 20.7890625 C23.8404942 28.82264479 23.8404942 28.82264479 21.0625 32.3125 C16.13072633 36.69629882 10.75611187 37.3994045 4.4375 38.4375 C3.64923828 38.5715625 2.86097656 38.705625 2.04882812 38.84375 C0.11671994 39.1716229 -1.8165322 39.49274237 -3.75 39.8125 C-3.75 41.1325 -3.75 42.4525 -3.75 43.8125 C-3.18603516 43.69132812 -2.62207031 43.57015625 -2.04101562 43.4453125 C0.55428628 42.89266836 3.15204416 42.35252453 5.75 41.8125 C6.636875 41.62171875 7.52375 41.4309375 8.4375 41.234375 C13.81132841 40.12799856 18.76177429 39.37148186 24.25 39.8125 C27.37080642 42.93330642 28.19956213 44.87844595 28.43725586 49.28027344 C28.32567324 54.84363466 27.51580782 60.32340214 26.75390625 65.828125 C26.52440529 67.52820709 26.52440529 67.52820709 26.29026794 69.26263428 C25.96741273 71.64645778 25.64201277 74.02993788 25.31420898 76.41308594 C24.81233759 80.06368139 24.31860152 83.71530766 23.82617188 87.3671875 C23.51089129 89.68756454 23.195152 92.00787931 22.87890625 94.328125 C22.73095108 95.41981995 22.58299591 96.51151489 22.43055725 97.6362915 C22.29048752 98.65124695 22.15041779 99.66620239 22.00610352 100.71191406 C21.88396988 101.60267639 21.76183624 102.49343872 21.63600159 103.41119385 C21.25 105.8125 21.25 105.8125 20.70487976 107.85641479 C20.19448542 110.05122518 20.16420051 111.95885834 20.21582031 114.21044922 C20.2320343 115.07169403 20.24824829 115.93293884 20.26495361 116.82028198 C20.28580017 117.7432608 20.30664673 118.66623962 20.328125 119.6171875 C20.35538411 121.58201474 20.38138673 123.54685974 20.40625 125.51171875 C20.44947598 128.60188534 20.50008473 131.69112671 20.57226562 134.78076172 C20.63902063 137.76804836 20.67368303 140.75433003 20.703125 143.7421875 C20.74654022 145.12058304 20.74654022 145.12058304 20.79083252 146.52682495 C20.80826166 150.72077219 20.73938636 153.80767001 18.09667969 157.19189453 C11.61946538 163.15470914 7.52333541 164.43727619 -1.08203125 164.44921875 C-2.07321457 164.46016068 -3.06439789 164.4711026 -4.08561707 164.4823761 C-6.1775494 164.49820342 -8.26958526 164.50344855 -10.36157227 164.4987793 C-13.54295316 164.49999255 -16.71971553 164.55975353 -19.90039062 164.62304688 C-21.940093 164.63119122 -23.9798128 164.63586117 -26.01953125 164.63671875 C-26.9604512 164.66029953 -27.90137115 164.68388031 -28.87080383 164.70817566 C-36.2576029 164.60665181 -40.57127577 162.01563611 -45.75 156.8125 C-48.19727886 153.14158172 -47.87520035 150.65193765 -47.6640625 146.44140625 C-47.61260643 144.84678212 -47.5646209 143.25204341 -47.51953125 141.65722656 C-47.49455566 140.80004028 -47.46958008 139.942854 -47.44384766 139.05969238 C-46.76403556 112.55063676 -50.54785496 86.69617632 -54.53036499 60.56718445 C-54.69050079 59.50055069 -54.8506366 58.43391693 -55.015625 57.33496094 C-55.22880371 55.94612701 -55.22880371 55.94612701 -55.44628906 54.52923584 C-55.95539673 49.97519821 -56.12725687 46.69823352 -54.3125 42.4375 C-51.75 39.8125 -51.75 39.8125 -49.8671875 39.48583984 C-44.09541804 39.5853977 -38.78873555 40.44791916 -33.1875 41.8125 C-31.96063477 42.09867188 -31.96063477 42.09867188 -30.70898438 42.390625 C-28.72056956 42.85575127 -26.73496244 43.33285427 -24.75 43.8125 C-24.75 42.4925 -24.75 41.1725 -24.75 39.8125 C-25.56621826 39.67001831 -25.56621826 39.67001831 -26.39892578 39.5246582 C-28.89487779 39.07753093 -31.38450594 38.60155348 -33.875 38.125 C-34.7309375 37.97611328 -35.586875 37.82722656 -36.46875 37.67382812 C-42.26084239 36.53768693 -45.58598961 35.03637635 -49.75 30.8125 C-51.01237731 28.28774538 -50.84856404 26.50049534 -50.8125 23.6875 C-50.80347656 22.77742188 -50.79445312 21.86734375 -50.78515625 20.9296875 C-50.77355469 20.23101562 -50.76195312 19.53234375 -50.75 18.8125 C-51.471875 18.68875 -52.19375 18.565 -52.9375 18.4375 C-55.75 17.8125 -55.75 17.8125 -57.9375 16.75 C-62.13310083 15.35146639 -66.36058119 15.46297221 -70.75 15.8125 C-71.08 16.1425 -71.41 16.4725 -71.75 16.8125 C-74.74179723 16.96577434 -77.69456324 17.04415249 -80.6875 17.0625 C-81.52474609 17.083125 -82.36199219 17.10375 -83.22460938 17.125 C-84.02576172 17.13015625 -84.82691406 17.1353125 -85.65234375 17.140625 C-86.75823853 17.15464355 -86.75823853 17.15464355 -87.88647461 17.16894531 C-88.80891968 16.99250488 -88.80891968 16.99250488 -89.75 16.8125 C-91.75 13.8125 -91.75 13.8125 -91.5 10.1875 C-91.2525 9.07375 -91.005 7.96 -90.75 6.8125 C-87.59150315 5.23325158 -84.2134872 5.66933486 -80.75 5.6875 C-79.64398438 5.68169922 -79.64398438 5.68169922 -78.515625 5.67578125 C-73.0033196 5.6858402 -73.0033196 5.6858402 -70.75 6.8125 C-69.10604291 6.94297278 -67.45955118 7.04229298 -65.8125 7.125 C-60.38699164 7.51660493 -56.21048019 9.06648405 -51.35546875 11.4609375 C-50.49566406 11.57695312 -49.63585937 11.69296875 -48.75 11.8125 C-46.18426579 9.89130525 -46.18426579 9.89130525 -44.51586914 8.28613281 C-32.82669416 -1.4685831 -14.13229009 -6.26088635 0 0 Z " fill="#070909" transform="translate(141.75,153.1875)"/>
<path d="M0 0 C77.22 0 154.44 0 234 0 C234 9.24 234 18.48 234 28 C156.78 28 79.56 28 0 28 C0 18.76 0 9.52 0 0 Z " fill="#E5E0D8" transform="translate(176,320)"/>
<path d="M0 0 C22.42857143 0 22.42857143 0 29 5.75 C30.50909593 9.14546584 30.53862259 12.38763785 30 16 C28.36312815 19.58552881 27.31027417 20.79315055 24 23 C24.969375 23.78375 25.93875 24.5675 26.9375 25.375 C29.79368717 27.68425771 30.87430366 28.91901149 31.3125 32.6875 C30.89528314 37.10999874 29.67556496 39.45487643 27 43 C19 46 19 46 0 46 C0 30.82 0 15.64 0 0 Z " fill="#0B0D0D" transform="translate(175,192)"/>
<path d="M0 0 C8 0 8 0 9.95874023 1.44604492 C10.40419189 2.11740479 10.84964355 2.78876465 11.30859375 3.48046875 C11.82397705 4.22699707 12.33936035 4.97352539 12.87036133 5.74267578 C13.38751709 6.54946777 13.90467285 7.35625977 14.4375 8.1875 C14.98881592 8.99944824 15.54013184 9.81139648 16.1081543 10.64794922 C17.22546243 12.29705383 18.33177924 13.95366093 19.42675781 15.61767578 C21.24513225 18.37119809 23.12457391 21.07702262 25.02099609 23.77709961 C26.69617485 26.1739669 28.34571286 28.5886662 30 31 C30.33 20.77 30.66 10.54 31 0 C33.31 0 35.62 0 38 0 C38 15.18 38 30.36 38 46 C30 46 30 46 27.70239258 43.99975586 C27.10579834 43.08073486 26.5092041 42.16171387 25.89453125 41.21484375 C25.22099609 40.20873047 24.54746094 39.20261719 23.85351562 38.16601562 C23.17998047 37.10060547 22.50644531 36.03519531 21.8125 34.9375 C20.78479492 33.37999023 20.78479492 33.37999023 19.73632812 31.79101562 C18.44781369 29.83778152 17.17076132 27.87689923 15.90942383 25.90600586 C13.6986936 22.5414333 11.33999283 19.27598996 9 16 C8.67 25.9 8.34 35.8 8 46 C5.36 46 2.72 46 0 46 C0 30.82 0 15.64 0 0 Z " fill="#0B0D0D" transform="translate(247,192)"/>
<path d="M0 0 C8 0 8 0 9.97460938 1.56958008 C10.65233398 2.65855591 10.65233398 2.65855591 11.34375 3.76953125 C11.86839844 4.57712891 12.39304688 5.38472656 12.93359375 6.21679688 C13.70896484 7.50166992 13.70896484 7.50166992 14.5 8.8125 C19.11835791 16.08554993 23.91073065 23.00225464 29 30 C29.33 20.1 29.66 10.2 30 0 C32.64 0 35.28 0 38 0 C38 15.18 38 30.36 38 46 C30 46 30 46 27.63671875 43.9375 C26.99347656 42.968125 26.35023438 41.99875 25.6875 41 C24.94757813 39.91847656 24.20765625 38.83695312 23.4453125 37.72265625 C23.05633789 37.12855957 22.66736328 36.53446289 22.26660156 35.92236328 C20.89468036 33.84015288 19.47975832 31.79226641 18.0546875 29.74609375 C14.65711876 24.86143488 11.30051559 19.95077339 8 15 C7.67 25.23 7.34 35.46 7 46 C4.69 46 2.38 46 0 46 C0 30.82 0 15.64 0 0 Z " fill="#0C0E0D" transform="translate(214,244)"/>
<path d="M0 0 C2.80234607 2.22630827 5.36592905 4.55451728 7.90625 7.07421875 C9.93812351 9.20686326 9.93812351 9.20686326 13 10 C13.13501894 12.43934225 13.23403897 14.87124104 13.3125 17.3125 C13.35439453 18.00279297 13.39628906 18.69308594 13.43945312 19.40429688 C13.48828125 21.42578125 13.48828125 21.42578125 13 25 C10.48046875 26.98046875 10.48046875 26.98046875 8 28 C7.63648438 27.39671875 7.27296875 26.7934375 6.8984375 26.171875 C2.70169937 19.50013747 -1.42023706 15.57755627 -9 13 C-18.30736458 12.08237251 -25.48504496 12.87426189 -33.25 18.25 C-36.34653637 21.34653637 -38.02150472 24.11910541 -40 28 C-42.4609375 26.96875 -42.4609375 26.96875 -45 25 C-45.52661171 22.24922823 -45.70319598 20.23685915 -45.625 17.5 C-45.65400391 16.48486328 -45.65400391 16.48486328 -45.68359375 15.44921875 C-45.6640625 13.46875 -45.6640625 13.46875 -45 10 C-42.6875 8.24609375 -42.6875 8.24609375 -40 7 C-38.76794443 5.87971319 -37.55899986 4.73346021 -36.375 3.5625 C-25.93269256 -5.7021036 -12.08715915 -6.52431886 0 0 Z " fill="#FAF5EC" transform="translate(144,282)"/>
<path d="M0 0 C3.23199781 1.64538071 4.71037931 2.61959376 6.4375 5.75 C4.6875 7.8125 4.6875 7.8125 2.4375 9.75 C0.00107902 9.59281155 -1.65990731 8.70524529 -3.875 7.6875 C-7.87049187 6.29372377 -11.43097158 5.93861573 -15.4609375 7.47265625 C-19.48011537 9.56703797 -22.02046799 11.48673502 -23.5625 15.75 C-24.28268125 22.29249165 -24.18356969 28.14318241 -20.5625 33.75 C-15.46478965 36.84860825 -11.3492856 37.30112244 -5.5625 36.75 C-2.07515992 35.96578022 -2.07515992 35.96578022 0.4375 33.75 C1.26104039 30.9848677 1.34160729 28.67472771 1.4375 25.75 C-0.8725 25.75 -3.1825 25.75 -5.5625 25.75 C-5.5625 23.44 -5.5625 21.13 -5.5625 18.75 C-0.6125 18.75 4.3375 18.75 9.4375 18.75 C9.4375 27.33 9.4375 35.91 9.4375 44.75 C7.1275 44.75 4.8175 44.75 2.4375 44.75 C2.1075 43.76 1.7775 42.77 1.4375 41.75 C0.42623047 42.47703125 0.42623047 42.47703125 -0.60546875 43.21875 C-6.17711278 46.10393423 -12.47489017 45.42280704 -18.5625 44.75 C-24.45514895 42.82441426 -27.59745169 38.94440474 -30.65234375 33.71484375 C-33.49130743 27.58609384 -33.66394837 19.91024768 -31.94921875 13.43359375 C-26.20817692 0.5099269 -13.1374044 -4.46038034 0 0 Z " fill="#0B0D0D" transform="translate(290.5625,245.25)"/>
<path d="M0 0 C4.1796989 2.8497947 7.11864324 5.98092971 8.75 10.875 C9.27166057 15.84360315 9.3224051 19.73018979 7.0625 24.25 C3.30525813 28.51497726 0.10944702 31.4462499 -5.66796875 32.18359375 C-12.00286261 32.47844777 -15.82696828 31.81364258 -20.65625 27.578125 C-24.09663304 23.90163724 -25.12641148 20.96964117 -25.6875 16 C-25.48363326 11.3731114 -23.96001557 7.61266673 -21.25 3.875 C-14.70806527 -1.33184601 -7.93533323 -2.74684612 0 0 Z " fill="#0D0E0E" transform="translate(198.25,245.125)"/>
<path d="M0 0 C1.43034568 0.80962963 2.85277608 1.63446306 4.25 2.5 C2.46875 6.3203125 2.46875 6.3203125 0.5 7.9375 C-2.862511 8.77812775 -4.69919805 7.02540097 -7.75 5.5 C-12.18975644 4.70972335 -15.05646406 5.13360365 -19.0625 7.25 C-22.98242128 10.53179456 -25.30670262 13.28926042 -26.0234375 18.48046875 C-26.30460178 24.59038492 -24.91863465 28.92547198 -20.75 33.5 C-16.37474705 36.3100474 -11.77724369 36.12543662 -6.75 35.5 C-3.11980915 34.16518742 -3.11980915 34.16518742 -0.75 31.5 C0.22350778 27.8634269 0.22350778 27.8634269 0.25 24.5 C-2.39 24.5 -5.03 24.5 -7.75 24.5 C-7.75 22.19 -7.75 19.88 -7.75 17.5 C-2.8 17.5 2.15 17.5 7.25 17.5 C7.25 26.08 7.25 34.66 7.25 43.5 C5.27 43.5 3.29 43.5 1.25 43.5 C1.25 42.18 1.25 40.86 1.25 39.5 C0.38375 40.16 -0.4825 40.82 -1.375 41.5 C-7.0596409 44.73017273 -13.43813622 44.330892 -19.75 43.5 C-25.98302571 41.30581961 -29.38888817 37.00000118 -32.75 31.5 C-34.93415515 24.94753454 -35.0955619 15.32529409 -32.1875 8.9375 C-25.12969487 -2.55020409 -12.00393724 -6.02758157 0 0 Z " fill="#090B0A" transform="translate(325.75,194.5)"/>
<path d="M0 0 C10.23 0 20.46 0 31 0 C31 2.64 31 5.28 31 8 C23.41 8 15.82 8 8 8 C8 11.63 8 15.26 8 19 C14.27 19 20.54 19 27 19 C27 21.64 27 24.28 27 27 C20.73 27 14.46 27 8 27 C8 30.63 8 34.26 8 38 C15.59 38 23.18 38 31 38 C31 40.64 31 43.28 31 46 C20.77 46 10.54 46 0 46 C0 30.82 0 15.64 0 0 Z " fill="#121313" transform="translate(307,244)"/>
<path d="M0 0 C10.23 0 20.46 0 31 0 C31 2.64 31 5.28 31 8 C23.41 8 15.82 8 8 8 C8 11.63 8 15.26 8 19 C14.27 19 20.54 19 27 19 C27 21.64 27 24.28 27 27 C20.73 27 14.46 27 8 27 C8 30.63 8 34.26 8 38 C15.59 38 23.18 38 31 38 C31 40.64 31 43.28 31 46 C20.77 46 10.54 46 0 46 C0 30.82 0 15.64 0 0 Z " fill="#121313" transform="translate(380,192)"/>
<path d="M0 0 C10.23 0 20.46 0 31 0 C31 2.64 31 5.28 31 8 C23.41 8 15.82 8 8 8 C8 11.63 8 15.26 8 19 C14.27 19 20.54 19 27 19 C27 21.64 27 24.28 27 27 C20.73 27 14.46 27 8 27 C8 30.63 8 34.26 8 38 C15.59 38 23.18 38 31 38 C31 40.64 31 43.28 31 46 C20.77 46 10.54 46 0 46 C0 30.82 0 15.64 0 0 Z " fill="#121313" transform="translate(211,192)"/>
<path d="M0 0 C9.9 0 19.8 0 30 0 C30.04125 4.24875 30.0825 8.4975 30.125 12.875 C30.14320801 14.2141748 30.16141602 15.55334961 30.18017578 16.93310547 C30.1851709 17.98385254 30.19016602 19.03459961 30.1953125 20.1171875 C30.20578613 21.19597168 30.21625977 22.27475586 30.22705078 23.38623047 C30 26 30 26 28 28 C25.41796875 28.25878906 25.41796875 28.25878906 22.1875 28.265625 C21.02992188 28.26820313 19.87234375 28.27078125 18.6796875 28.2734375 C17.46539062 28.26570313 16.25109375 28.25796875 15 28.25 C13.78570312 28.25773437 12.57140625 28.26546875 11.3203125 28.2734375 C9.58394531 28.26957031 9.58394531 28.26957031 7.8125 28.265625 C6.21341797 28.26224121 6.21341797 28.26224121 4.58203125 28.25878906 C2 28 2 28 0 26 C-0.22705078 23.38623047 -0.22705078 23.38623047 -0.1953125 20.1171875 C-0.19031738 19.06644043 -0.18532227 18.01569336 -0.18017578 16.93310547 C-0.16196777 15.59393066 -0.14375977 14.25475586 -0.125 12.875 C-0.08375 8.62625 -0.0425 4.3775 0 0 Z " fill="#040606" transform="translate(113,322)"/>
<path d="M0 0 C2.64 0 5.28 0 8 0 C8.33 6.93 8.66 13.86 9 21 C11.27191767 18.25088958 13.54257087 15.50075156 15.8125 12.75 C16.45509766 11.97269531 17.09769531 11.19539062 17.75976562 10.39453125 C18.38173828 9.64042969 19.00371094 8.88632813 19.64453125 8.109375 C20.21534424 7.41811523 20.78615723 6.72685547 21.37426758 6.01464844 C22.48495402 4.63825791 23.54393803 3.21894326 24.5546875 1.76757812 C26 0 26 0 28.48046875 -0.390625 C29.82044922 -0.32101563 29.82044922 -0.32101563 31.1875 -0.25 C32.08855469 -0.21390625 32.98960937 -0.1778125 33.91796875 -0.140625 C34.94857422 -0.07101563 34.94857422 -0.07101563 36 0 C30.23188771 7.85104173 24.10631187 15.4115736 18 23 C21.14295146 27.99768084 24.77422193 32.33835318 28.6875 36.75 C29.85994156 38.07647569 31.03060431 39.40452641 32.19921875 40.734375 C32.71315186 41.31413086 33.22708496 41.89388672 33.7565918 42.49121094 C35 44 35 44 36 46 C32.48387109 46.66065053 29.50239533 46.80374858 26 46 C22.42124599 43.09606514 19.75624927 39.67321158 17 36 C16.25492187 35.10667969 15.50984375 34.21335938 14.7421875 33.29296875 C13 31 13 31 13 29 C10.89970173 30.019062 10.89970173 30.019062 9 32 C8.29727224 35.41627532 8.29727224 35.41627532 8.25 39.1875 C8.19328125 40.45980469 8.1365625 41.73210937 8.078125 43.04296875 C8.05234375 44.01878906 8.0265625 44.99460938 8 46 C5.36 46 2.72 46 0 46 C0 30.82 0 15.64 0 0 Z " fill="#0F1010" transform="translate(341,192)"/>
<path d="M0 0 C4.84070772 2.91156959 7.98230262 5.55628285 9.8046875 11.0234375 C10.17294974 16.63943666 10.02024757 20.20009739 6.8046875 25.0234375 C2.80794462 29.06386063 -0.78523578 31.14815001 -6.5078125 31.3359375 C-11.13757912 31.27581066 -13.6322276 30.08934777 -17.1953125 27.0234375 C-21.27673368 22.5007816 -22.51895786 19.23197397 -22.40625 13.078125 C-21.92039308 8.34551866 -19.67788664 5.24302941 -16.1953125 2.2109375 C-11.26316648 -1.38541897 -5.6834689 -2.5282335 0 0 Z " fill="#FAF5ED" transform="translate(134.1953125,156.9765625)"/>
<path d="M0 0 C5.40769743 -0.18050729 7.7944365 0.42079702 12 4 C18.4920852 11.92284778 19.36216765 20.93713794 19.25 30.875 C19.23876099 32.19153564 19.23876099 32.19153564 19.22729492 33.53466797 C19.06101259 43.569203 18.21518988 53.65585006 12 62 C9.91162109 62.61865234 9.91162109 62.61865234 8 63 C7.18182 56.59948607 6.36399047 50.19892741 5.54638672 43.79833984 C5.26912068 41.62808252 4.99177901 39.45783485 4.71435547 37.28759766 C3.1258428 24.86049676 1.54374105 12.43275207 0 0 Z " fill="#F6F2E9" transform="translate(92,214)"/>
<path d="M0 0 C-1.61000219 15.03938533 -3.4979972 30.02610858 -5.625 45 C-5.73500336 45.78251129 -5.84500671 46.56502258 -5.95834351 47.37124634 C-6.27287397 49.60226459 -6.59250615 51.83248478 -6.9140625 54.0625 C-7.0992041 55.35285156 -7.2843457 56.64320313 -7.47509766 57.97265625 C-8 61 -8 61 -9 63 C-12.10821159 61.95951126 -12.91075652 61.17199216 -14.44921875 58.20703125 C-15.06216797 56.52673828 -15.06216797 56.52673828 -15.6875 54.8125 C-16.10386719 53.70519531 -16.52023438 52.59789062 -16.94921875 51.45703125 C-20.60871797 39.41741487 -21.37570125 21.61071534 -16 10 C-11.81955148 2.9154864 -8.51957374 -0.38725335 0 0 Z " fill="#F7F2E9" transform="translate(164,214)"/>
<path d="M0 0 C2.64 0 5.28 0 8 0 C8 12.54 8 25.08 8 38 C13.61 38 19.22 38 25 38 C25 40.64 25 43.28 25 46 C16.75 46 8.5 46 0 46 C0 30.82 0 15.64 0 0 Z " fill="#111312" transform="translate(343,244)"/>
<path d="M0 0 C2.64 0 5.28 0 8 0 C8 12.54 8 25.08 8 38 C13.61 38 19.22 38 25 38 C25 40.64 25 43.28 25 46 C16.75 46 8.5 46 0 46 C0 30.82 0 15.64 0 0 Z " fill="#111312" transform="translate(416,192)"/>
<path d="M0 0 C4.29477197 2.46551724 4.29477197 2.46551724 6 5 C6.73810279 8.14252854 6.70582012 10.85321863 6 14 C4.12379387 16.50160818 2.76108697 17.61945652 0 19 C-3.87214182 19.43023798 -5.52496371 19.31669086 -8.8125 17.125 C-11.60921179 14.40819426 -11.94303123 13.60386898 -12.3125 9.6875 C-11.95124058 5.42463889 -10.98007946 3.98007946 -8 1 C-5.09704195 -0.45147903 -3.22738221 -0.37239025 0 0 Z " fill="#F8F3EA" transform="translate(193,251)"/>
<path d="M0 0 C9.9 0 19.8 0 30 0 C30 2.64 30 5.28 30 8 C20.1 8 10.2 8 0 8 C0 5.36 0 2.72 0 0 Z " fill="#111312" transform="translate(175,282)"/>
<path d="M0 0 C10.02716763 -0.36242775 10.02716763 -0.36242775 14.1875 1.1875 C16 3 16 3 16.5 5.5 C15.90381914 8.4809043 15.45314525 9.23759544 13 11 C9.86328125 11.29296875 9.86328125 11.29296875 6.3125 11.1875 C4.54326172 11.14689453 4.54326172 11.14689453 2.73828125 11.10546875 C1.83464844 11.07066406 0.93101562 11.03585938 0 11 C0 7.37 0 3.74 0 0 Z " fill="#F8F3EA" transform="translate(182,219)"/>
<path d="M0 0 C10.625 -0.125 10.625 -0.125 14 1 C15.39431504 3.78863007 15.25660094 5.92078868 15 9 C11.47320901 11.35119399 9.97120515 11.21443452 5.8125 11.125 C4.72582031 11.10695312 3.63914063 11.08890625 2.51953125 11.0703125 C1.27236328 11.03550781 1.27236328 11.03550781 0 11 C0 7.37 0 3.74 0 0 Z " fill="#F7F2EA" transform="translate(182,200)"/>
<path d="M0 0 C1.65 0 3.3 0 5 0 C6 1 6 1 6.1328125 3.25 C6.13023437 4.1575 6.12765625 5.065 6.125 6 C6.12757813 6.9075 6.13015625 7.815 6.1328125 8.75 C6 11 6 11 5 12 C3.35 12 1.7 12 0 12 C0 8.04 0 4.08 0 0 Z " fill="#7D7C77" transform="translate(297,327)"/>
<path d="M0 0 C1.65 0 3.3 0 5 0 C5.98248524 4.0527516 6.08159574 7.83861737 6 12 C5.34 12 4.68 12 4 12 C4 10.35 4 8.7 4 7 C3.34 7 2.68 7 2 7 C2 8.65 2 10.3 2 12 C1.34 12 0.68 12 0 12 C0 8.04 0 4.08 0 0 Z " fill="#666662" transform="translate(251,327)"/>
<path d="M0 0 C1.65 0 3.3 0 5 0 C5.98248524 4.0527516 6.08159574 7.83861737 6 12 C5.34 12 4.68 12 4 12 C4 10.35 4 8.7 4 7 C3.34 7 2.68 7 2 7 C2 8.65 2 10.3 2 12 C1.34 12 0.68 12 0 12 C0 8.04 0 4.08 0 0 Z " fill="#4D4D4A" transform="translate(341,327)"/>
<path d="M0 0 C0.99 0 1.98 0 3 0 C3.33 3.96 3.66 7.92 4 12 C3.67 11.34 3.34 10.68 3 10 C2.01 10 1.02 10 0 10 C0 10.66 0 11.32 0 12 C-0.66 12 -1.32 12 -2 12 C-1.85831863 10.56208484 -1.71148957 9.1246763 -1.5625 7.6875 C-1.48128906 6.88699219 -1.40007812 6.08648437 -1.31640625 5.26171875 C-1 3 -1 3 0 0 Z " fill="#777571" transform="translate(232,327)"/>
<path d="M0 0 C2.475 0.495 2.475 0.495 5 1 C5 4.63 5 8.26 5 12 C4.34 12 3.68 12 3 12 C3 10.35 3 8.7 3 7 C2.34 7 1.68 7 1 7 C1 8.65 1 10.3 1 12 C0.67 12 0.34 12 0 12 C0 8.04 0 4.08 0 0 Z " fill="#5A5956" transform="translate(195,327)"/>
<path d="M0 0 C0.66 0 1.32 0 2 0 C2.36402369 1.43503555 2.71586591 2.87316506 3.0625 4.3125 C3.25972656 5.11300781 3.45695312 5.91351563 3.66015625 6.73828125 C4 9 4 9 3 12 C3 11.34 3 10.68 3 10 C1.68 10 0.36 10 -1 10 C-1.33 10.66 -1.66 11.32 -2 12 C-1.85904936 10.3745692 -1.71207913 8.74965949 -1.5625 7.125 C-1.48128906 6.22007812 -1.40007812 5.31515625 -1.31640625 4.3828125 C-1 2 -1 2 0 0 Z " fill="#595956" transform="translate(274,327)"/>
<path d="M0 0 C1.65 0 3.3 0 5 0 C5 0.66 5 1.32 5 2 C4.01 2 3.02 2 2 2 C2 2.99 2 3.98 2 5 C2.66 5 3.32 5 4 5 C4 5.66 4 6.32 4 7 C3.34 7 2.68 7 2 7 C2 7.99 2 8.98 2 10 C2.99 10 3.98 10 5 10 C5 10.66 5 11.32 5 12 C3.35 12 1.7 12 0 12 C0 8.04 0 4.08 0 0 Z " fill="#545451" transform="translate(207,327)"/>
<path d="M0 0 C0.66 0 1.32 0 2 0 C2.33 1.32 2.66 2.64 3 4 C3.99 2.68 4.98 1.36 6 0 C6.14285714 8.57142857 6.14285714 8.57142857 5 12 C4.01 12 3.02 12 2 12 C1.34 8.04 0.68 4.08 0 0 Z " fill="#4C4C4A" transform="translate(353,327)"/>
<path d="M0 0 C0.66 0 1.32 0 2 0 C2.33 0.99 2.66 1.98 3 3 C3.66 2.01 4.32 1.02 5 0 C5 3.96 5 7.92 5 12 C4.01 10.68 3.02 9.36 2 8 C1.34 9.32 0.68 10.64 0 12 C0 8.04 0 4.08 0 0 Z " fill="#313230" transform="translate(285,327)"/>
<path d="M0 0 C2.475 0.495 2.475 0.495 5 1 C5 2.65 5 4.3 5 6 C3.68 6.33 2.36 6.66 1 7 C1 8.65 1 10.3 1 12 C0.67 12 0.34 12 0 12 C0 8.04 0 4.08 0 0 Z " fill="#5A5956" transform="translate(219,327)"/>
<path d="M0 0 C1.65 0 3.3 0 5 0 C4.01 0.33 3.02 0.66 2 1 C2 2.32 2 3.64 2 5 C2.99 5 3.98 5 5 5 C5 5.66 5 6.32 5 7 C4.01 7 3.02 7 2 7 C2 8.32 2 9.64 2 11 C2.99 11.33 3.98 11.66 5 12 C3.35 12 1.7 12 0 12 C0 8.04 0 4.08 0 0 Z " fill="#4B4B48" transform="translate(386,327)"/>
<path d="M0 0 C1.32 0.33 2.64 0.66 4 1 C4 2.65 4 4.3 4 6 C2.68 6 1.36 6 0 6 C0 4.02 0 2.04 0 0 Z " fill="#92908B" transform="translate(341,327)"/>
<path d="M0 0 C0.99 0 1.98 0 3 0 C3.33 2.64 3.66 5.28 4 8 C3.01 8.495 3.01 8.495 2 9 C1.855625 8.2575 1.71125 7.515 1.5625 6.75 C1.09812508 4.47972261 0.58136431 2.24240521 0 0 Z " fill="#3B3C3A" transform="translate(232,327)"/>
</svg>
